<svg version="1" xmlns="http://www.w3.org/2000/svg" width="933.333" height="933.333" viewBox="0 0 700.000000 700.000000"><path d="M329 308v109h42V199h-42v109zM454.3 280.3c-28.8 14.9-52.3 27.3-52.3 27.6 0 .3 24 12.3 53.3 26.7l53.2 26.1 5.2-10.1c2.9-5.6 5.2-10.5 5.2-10.9.1-.4-2.3-1.9-5.1-3.2-2.9-1.2-17.6-8.4-32.6-15.8l-27.3-13.5 32.6-16.7c17.9-9.2 32.5-17.3 32.3-17.9-1-3.6-10-19.6-11.1-19.5-.6 0-24.7 12.2-53.4 27.2zM171.8 335.4c-7.5 2.8-13.9 5.4-14.2 5.7-.9.9 6.6 18.5 15 35.2 32.1 63.9 75.3 109.1 124.2 130 11.7 5 28.6 9.8 41.7 11.8 15.9 2.4 55.2.5 54.9-2.6-.1-.6-1.4-7.9-2.9-16.3l-2.9-15.3-6.5.8c-10.4 1.3-35.8.9-43.6-.6-22.6-4.4-46.4-16-66-32.1-8.7-7.2-26.3-25.2-33.7-34.5-8.6-10.9-19.9-27.8-27.6-41.5-6.8-12-17.4-34.2-20.3-42.3-.8-2.2-1.9-3.7-2.9-3.6-.8.1-7.7 2.4-15.2 5.3z"/></svg>